<svg width="1107" height="227" viewBox="0 0 1107 227" fill="none" xmlns="http://www.w3.org/2000/svg">
<g clip-path="url(#clip0_111_33)">
<path d="M256.992 227C240.113 227 225.073 223.431 211.873 216.294C198.673 208.94 188.394 198.883 181.036 186.122C173.679 173.145 170 158.438 170 142C170 125.346 173.679 110.639 181.036 97.8779C188.394 85.117 198.565 75.1679 211.548 68.0305C224.532 60.6768 239.464 57 256.343 57C272.573 57 287.396 61.0013 300.812 69.0038C314.229 77.0064 323.967 88.5776 330.026 103.718L289.776 117.992C286.747 111.72 281.986 106.746 275.494 103.069C269.218 99.1756 262.185 97.229 254.395 97.229C246.388 97.229 239.356 99.1756 233.296 103.069C227.237 106.746 222.476 111.936 219.014 118.641C215.552 125.346 213.821 133.132 213.821 142C213.821 150.868 215.552 158.654 219.014 165.359C222.476 171.847 227.345 177.038 233.621 180.931C239.897 184.824 247.038 186.771 255.044 186.771C262.835 186.771 269.868 184.716 276.143 180.607C282.635 176.497 287.396 171.09 290.425 164.385L331 178.66C324.724 194.017 314.878 205.912 301.462 214.347C288.261 222.782 273.438 227 256.992 227Z" fill="white"/>
<path d="M85.9866 227C69.5515 227 54.8464 223.431 41.8714 216.294C29.1126 208.94 19.0569 198.883 11.7044 186.122C4.56814 173.361 1 158.654 1 142C1 125.346 4.56814 110.639 11.7044 97.8779C18.8407 85.117 28.7882 75.1679 41.547 68.0305C54.3058 60.6768 68.9028 57 85.3378 57C101.989 57 116.694 60.6768 129.453 68.0305C142.212 75.1679 152.159 85.117 159.296 97.8779C166.432 110.639 170 125.346 170 142C170 158.654 166.432 173.361 159.296 186.122C152.159 198.883 142.212 208.94 129.453 216.294C116.91 223.431 102.422 227 85.9866 227ZM85.9866 187.42C93.9879 187.42 101.016 185.473 107.071 181.58C113.126 177.687 117.775 172.388 121.019 165.683C124.479 158.762 126.209 150.868 126.209 142C126.209 133.132 124.479 125.346 121.019 118.641C117.559 111.72 112.694 106.313 106.422 102.42C100.367 98.5267 93.3391 96.5802 85.3378 96.5802C77.5528 96.5802 70.5246 98.5267 64.2534 102.42C58.1983 106.313 53.4408 111.72 49.9808 118.641C46.5208 125.346 44.7908 133.132 44.7908 142C44.7908 150.868 46.5208 158.762 49.9808 165.683C53.4408 172.388 58.3065 177.687 64.5777 181.58C70.849 185.473 77.9853 187.42 85.9866 187.42Z" fill="white"/>
<path d="M1 0H43L39.7692 113.5L43 227H1V0Z" fill="white"/>
<path d="M817.705 134.084C816.245 134.084 814.623 133.787 812.839 133.192C811.109 132.651 809.568 132.003 808.217 131.246L812.19 122.568C813.11 123.054 813.948 123.433 814.705 123.703C815.516 124.028 816.218 124.19 816.813 124.19C817.949 124.19 818.949 123.865 819.814 123.217C820.679 122.622 821.382 121.73 821.923 120.54L826.707 109.267L839.603 76.3404H851.362L832.952 120.378C831.817 123.081 830.627 125.46 829.384 127.515C828.14 129.624 826.599 131.246 824.761 132.381C822.977 133.516 820.625 134.084 817.705 134.084ZM823.869 116.891L805.297 76.3404H817.056L830.6 109.267L834.088 116.891H823.869Z" fill="white"/>
<path d="M763.105 116.891V60.1202H773.81V109.348L773.242 116.891H763.105ZM786.056 117.864C782.65 117.864 779.758 116.999 777.379 115.269C775.054 113.539 773.269 111.079 772.026 107.889C770.782 104.699 770.161 100.941 770.161 96.6156C770.161 92.2361 770.782 88.4785 772.026 85.3426C773.269 82.1526 775.054 79.6926 777.379 77.9624C779.758 76.2323 782.65 75.3672 786.056 75.3672C789.787 75.3672 793.004 76.2323 795.707 77.9624C798.465 79.6926 800.6 82.1526 802.114 85.3426C803.628 88.4785 804.385 92.2361 804.385 96.6156C804.385 100.941 803.628 104.699 802.114 107.889C800.6 111.079 798.465 113.539 795.707 115.269C793.004 116.999 789.787 117.864 786.056 117.864ZM783.299 108.051C785.245 108.051 786.948 107.564 788.408 106.591C789.922 105.618 791.112 104.266 791.977 102.536C792.842 100.806 793.274 98.8323 793.274 96.6156C793.274 94.3988 792.842 92.4254 791.977 90.6952C791.166 88.9651 790.003 87.6404 788.489 86.7213C787.03 85.7481 785.326 85.2615 783.38 85.2615C781.542 85.2615 779.893 85.7481 778.433 86.7213C776.973 87.6945 775.838 89.0462 775.027 90.7763C774.216 92.4524 773.81 94.3988 773.81 96.6156C773.81 98.8323 774.216 100.806 775.027 102.536C775.838 104.266 776.946 105.618 778.352 106.591C779.812 107.564 781.461 108.051 783.299 108.051Z" fill="white"/>
<path d="M717.202 117.864C713.201 117.864 709.66 116.972 706.578 115.188C703.496 113.349 701.063 110.835 699.279 107.645C697.549 104.455 696.684 100.779 696.684 96.6156C696.684 92.4524 697.576 88.7758 699.36 85.5859C701.199 82.3959 703.686 79.9088 706.822 78.1246C710.012 76.2863 713.661 75.3672 717.77 75.3672C721.339 75.3672 724.61 76.3134 727.583 78.2057C730.611 80.044 733.017 82.7744 734.801 86.3969C736.64 89.9653 737.559 94.3177 737.559 99.4541H706.822L707.795 98.4809C707.795 100.481 708.281 102.239 709.255 103.752C710.282 105.212 711.579 106.348 713.147 107.159C714.769 107.916 716.5 108.294 718.338 108.294C720.555 108.294 722.366 107.835 723.772 106.915C725.177 105.942 726.259 104.699 727.016 103.185L736.586 106.915C735.45 109.186 733.963 111.16 732.125 112.836C730.341 114.458 728.205 115.701 725.718 116.566C723.231 117.431 720.392 117.864 717.202 117.864ZM708.362 92.4794L707.389 91.5062H726.935L726.042 92.4794C726.042 90.533 725.583 88.9921 724.664 87.8567C723.745 86.6672 722.609 85.8022 721.257 85.2615C719.96 84.7208 718.689 84.4505 717.446 84.4505C716.202 84.4505 714.878 84.7208 713.472 85.2615C712.066 85.8022 710.85 86.6672 709.822 87.8567C708.849 88.9921 708.362 90.533 708.362 92.4794Z" fill="white"/>
<path d="M679.513 116.891L678.945 109.348V60.1202H689.65V116.891H679.513ZM666.78 117.864C663.049 117.864 659.805 116.999 657.048 115.269C654.345 113.539 652.236 111.079 650.722 107.889C649.208 104.699 648.451 100.941 648.451 96.6156C648.451 92.2361 649.208 88.4785 650.722 85.3426C652.236 82.1526 654.345 79.6926 657.048 77.9624C659.805 76.2323 663.049 75.3672 666.78 75.3672C670.186 75.3672 673.052 76.2323 675.377 77.9624C677.756 79.6926 679.567 82.1526 680.81 85.3426C682.054 88.4785 682.676 92.2361 682.676 96.6156C682.676 100.941 682.054 104.699 680.81 107.889C679.567 111.079 677.756 113.539 675.377 115.269C673.052 116.999 670.186 117.864 666.78 117.864ZM669.537 108.051C671.376 108.051 672.998 107.564 674.403 106.591C675.863 105.618 676.999 104.266 677.81 102.536C678.621 100.806 679.026 98.8323 679.026 96.6156C679.026 94.3988 678.621 92.4254 677.81 90.6952C676.999 88.9651 675.863 87.6404 674.403 86.7213C672.998 85.7481 671.349 85.2615 669.456 85.2615C667.51 85.2615 665.807 85.7481 664.347 86.7213C662.887 87.6404 661.725 88.9651 660.86 90.6952C659.995 92.4254 659.562 94.3988 659.562 96.6156C659.562 98.8323 659.995 100.806 660.86 102.536C661.725 104.266 662.887 105.618 664.347 106.591C665.861 107.564 667.591 108.051 669.537 108.051Z" fill="white"/>
<path d="M631.89 116.891L631.566 108.7V96.3723C631.566 93.9393 631.295 91.8577 630.755 90.1275C630.268 88.3974 629.457 87.0727 628.322 86.1536C627.24 85.1804 625.754 84.6938 623.861 84.6938C622.131 84.6938 620.563 85.0722 619.157 85.8292C617.752 86.5861 616.562 87.7486 615.589 89.3165L606.181 86.0725C606.938 84.3423 608.047 82.6663 609.506 81.0442C610.966 79.3682 612.859 78.0165 615.183 76.9892C617.562 75.9079 620.455 75.3672 623.861 75.3672C627.97 75.3672 631.377 76.1512 634.08 77.7191C636.837 79.2871 638.865 81.5038 640.162 84.3694C641.514 87.1809 642.163 90.533 642.109 94.4259L641.866 116.891H631.89ZM620.536 117.864C615.67 117.864 611.885 116.783 609.182 114.62C606.533 112.457 605.208 109.402 605.208 105.456C605.208 101.13 606.641 97.8862 609.506 95.7235C612.426 93.5067 616.508 92.3983 621.753 92.3983H632.052V100.346H625.483C621.969 100.346 619.536 100.779 618.184 101.644C616.832 102.455 616.157 103.617 616.157 105.131C616.157 106.321 616.697 107.267 617.779 107.97C618.86 108.618 620.374 108.943 622.32 108.943C624.104 108.943 625.672 108.537 627.024 107.726C628.43 106.861 629.538 105.78 630.349 104.482C631.16 103.131 631.566 101.752 631.566 100.346H634.161C634.161 105.861 633.107 110.159 630.998 113.241C628.944 116.323 625.456 117.864 620.536 117.864Z" fill="white"/>
<path d="M536.672 116.891V76.3404H546.729L547.215 81.6119C548.459 79.5574 550.054 78.0165 552 76.9892C553.947 75.9079 556.109 75.3672 558.488 75.3672C561.786 75.3672 564.544 76.0701 566.761 77.4758C569.031 78.8816 570.68 81.0442 571.708 83.9639C572.897 81.2064 574.573 79.0978 576.736 77.638C578.899 76.1241 581.413 75.3672 584.278 75.3672C589.036 75.3672 592.659 76.8811 595.146 79.9088C597.633 82.8825 598.877 87.4782 598.877 93.696V116.891H588.171V96.129C588.171 93.3716 587.874 91.2359 587.279 89.722C586.684 88.2081 585.873 87.1268 584.846 86.478C583.819 85.7751 582.602 85.4237 581.197 85.4237C578.601 85.3696 576.601 86.2077 575.195 87.9378C573.789 89.668 573.086 92.2361 573.086 95.6424V116.891H562.381V96.129C562.381 93.3716 562.084 91.2359 561.489 89.722C560.948 88.2081 560.137 87.1268 559.056 86.478C558.029 85.7751 556.812 85.4237 555.407 85.4237C552.811 85.3696 550.811 86.2077 549.405 87.9378C548.053 89.668 547.378 92.2361 547.378 95.6424V116.891H536.672Z" fill="white"/>
<path d="M490.77 117.864C486.769 117.864 483.227 116.972 480.146 115.188C477.064 113.349 474.631 110.835 472.846 107.645C471.116 104.455 470.251 100.779 470.251 96.6156C470.251 92.4524 471.143 88.7758 472.928 85.5859C474.766 82.3959 477.253 79.9088 480.389 78.1246C483.579 76.2863 487.228 75.3672 491.337 75.3672C494.906 75.3672 498.177 76.3134 501.151 78.2057C504.178 80.044 506.584 82.7744 508.369 86.3969C510.207 89.9653 511.126 94.3177 511.126 99.4541H480.389L481.362 98.4809C481.362 100.481 481.849 102.239 482.822 103.752C483.849 105.212 485.147 106.348 486.715 107.159C488.337 107.916 490.067 108.294 491.905 108.294C494.122 108.294 495.933 107.835 497.339 106.915C498.745 105.942 499.826 104.699 500.583 103.185L510.153 106.915C509.017 109.186 507.531 111.16 505.692 112.836C503.908 114.458 501.772 115.701 499.285 116.566C496.798 117.431 493.96 117.864 490.77 117.864ZM481.93 92.4794L480.957 91.5062H500.502L499.61 92.4794C499.61 90.533 499.15 88.9921 498.231 87.8567C497.312 86.6672 496.176 85.8022 494.825 85.2615C493.527 84.7208 492.257 84.4505 491.013 84.4505C489.769 84.4505 488.445 84.7208 487.039 85.2615C485.633 85.8022 484.417 86.6672 483.39 87.8567C482.416 88.9921 481.93 90.533 481.93 92.4794Z" fill="white"/>
<path d="M457.23 117.864C452.743 117.864 449.336 116.756 447.012 114.539C444.741 112.322 443.605 109.159 443.605 105.05V63.6887H454.311V102.698C454.311 104.428 454.689 105.753 455.446 106.672C456.203 107.537 457.311 107.97 458.771 107.97C459.312 107.97 459.907 107.862 460.555 107.645C461.204 107.375 461.88 106.996 462.583 106.51L466.314 114.539C465.016 115.512 463.556 116.296 461.934 116.891C460.366 117.54 458.798 117.864 457.23 117.864ZM437.036 85.4237V76.3404H464.448V85.4237H437.036Z" fill="white"/>
<path d="M419.947 116.891V76.3404H430.652V116.891H419.947ZM425.299 69.7712C423.677 69.7712 422.245 69.1765 421.001 67.987C419.758 66.7435 419.136 65.2836 419.136 63.6076C419.136 61.9315 419.758 60.4987 421.001 59.3092C422.245 58.0657 423.677 57.4439 425.299 57.4439C426.975 57.4439 428.408 58.0657 429.598 59.3092C430.841 60.4987 431.463 61.9315 431.463 63.6076C431.463 65.2836 430.841 66.7435 429.598 67.987C428.408 69.1765 426.975 69.7712 425.299 69.7712Z" fill="white"/>
<path d="M390.635 117.864C387.769 117.864 385.093 117.513 382.606 116.81C380.119 116.107 377.902 115.134 375.956 113.89C374.009 112.592 372.387 111.16 371.09 109.592C369.846 108.024 369.035 106.375 368.657 104.645L379.524 101.401C380.227 103.239 381.471 104.834 383.255 106.185C385.039 107.483 387.283 108.159 389.986 108.213C392.852 108.267 395.177 107.645 396.961 106.348C398.799 105.05 399.718 103.374 399.718 101.319C399.718 99.5352 398.988 98.0484 397.529 96.8589C396.123 95.6154 394.176 94.6692 391.689 94.0204L384.309 92.074C381.552 91.3711 379.119 90.3168 377.01 88.911C374.901 87.4512 373.252 85.667 372.063 83.5584C370.873 81.4498 370.279 78.9897 370.279 76.1782C370.279 70.8256 372.036 66.6624 375.55 63.6887C379.119 60.6609 384.147 59.147 390.635 59.147C394.258 59.147 397.42 59.6877 400.124 60.7691C402.881 61.7963 405.179 63.2832 407.017 65.2296C408.856 67.176 410.261 69.4739 411.235 72.1232L400.448 75.4483C399.799 73.61 398.61 72.0421 396.88 70.7445C395.15 69.4468 392.96 68.798 390.311 68.798C387.607 68.798 385.472 69.4198 383.904 70.6634C382.39 71.9069 381.633 73.6641 381.633 75.9349C381.633 77.7191 382.228 79.1249 383.417 80.1521C384.661 81.1794 386.337 81.9634 388.445 82.5041L395.907 84.3694C400.773 85.5589 404.557 87.6945 407.261 90.7763C409.964 93.8582 411.316 97.2914 411.316 101.076C411.316 104.428 410.505 107.375 408.883 109.916C407.261 112.403 404.909 114.35 401.827 115.755C398.745 117.161 395.014 117.864 390.635 117.864Z" fill="white"/>
<path d="M1080.53 220.916C1074.91 220.916 1069.94 219.727 1065.61 217.348C1061.29 214.897 1057.9 211.544 1055.45 207.291C1053 203.038 1051.77 198.136 1051.77 192.585C1051.77 186.962 1053 182.024 1055.45 177.77C1057.97 173.517 1061.39 170.201 1065.72 167.822C1070.04 165.443 1075.05 164.254 1080.75 164.254C1085.87 164.254 1090.48 165.479 1094.59 167.93C1098.7 170.381 1101.94 174.022 1104.32 178.852C1106.77 183.682 1108 189.701 1108 196.91H1067.34L1069.18 194.856C1069.18 197.307 1069.68 199.469 1070.69 201.344C1071.7 203.218 1073.11 204.66 1074.91 205.669C1076.71 206.606 1078.73 207.075 1080.97 207.075C1083.63 207.075 1085.87 206.498 1087.67 205.345C1089.54 204.119 1090.84 202.605 1091.56 200.803L1106.49 205.885C1105.04 209.274 1102.99 212.085 1100.32 214.32C1097.73 216.555 1094.74 218.213 1091.35 219.294C1087.96 220.375 1084.35 220.916 1080.53 220.916ZM1069.61 187.827L1067.88 185.664H1092.1L1090.59 187.827C1090.59 185.16 1090.05 183.033 1088.97 181.447C1087.89 179.861 1086.55 178.744 1084.97 178.095C1083.38 177.374 1081.8 177.013 1080.21 177.013C1078.62 177.013 1077 177.374 1075.34 178.095C1073.76 178.744 1072.39 179.861 1071.23 181.447C1070.15 183.033 1069.61 185.16 1069.61 187.827Z" fill="white"/>
<path d="M1013.46 207.616L1003.51 195.937L1030.65 165.551H1050.44L1013.46 207.616ZM997.452 219.618V143.924H1014.32V219.618H997.452ZM1032.27 219.618L1015.51 195.721L1026.54 184.15L1051.84 219.618H1032.27Z" fill="white"/>
<path d="M966.803 191.612C966.803 185.772 967.956 180.906 970.263 177.013C972.642 173.121 975.598 170.201 979.13 168.255C982.735 166.308 986.483 165.335 990.376 165.335V181.771C987.06 181.771 983.924 182.132 980.968 182.853C978.085 183.574 975.742 184.691 973.94 186.205C972.137 187.647 971.236 189.521 971.236 191.828L966.803 191.612ZM954.367 219.618V165.551H971.236V219.618H954.367Z" fill="white"/>
<path d="M928.086 219.618L927.654 207.94V192.693C927.654 189.809 927.401 187.286 926.897 185.124C926.392 182.961 925.491 181.267 924.194 180.041C922.896 178.816 920.949 178.203 918.354 178.203C916.336 178.203 914.57 178.672 913.056 179.609C911.542 180.546 910.244 181.843 909.163 183.502L894.457 178.635C895.682 175.968 897.34 173.553 899.431 171.39C901.593 169.228 904.225 167.498 907.325 166.2C910.424 164.902 914.029 164.254 918.138 164.254C923.761 164.254 928.519 165.299 932.412 167.39C936.305 169.48 939.224 172.4 941.171 176.148C943.117 179.897 944.09 184.331 944.09 189.449L943.874 219.618H928.086ZM913.38 220.916C906.964 220.916 901.99 219.474 898.458 216.591C894.925 213.707 893.159 209.634 893.159 204.371C893.159 198.676 894.997 194.423 898.674 191.612C902.35 188.8 907.505 187.394 914.137 187.394H928.951V198.208H920.517C916.912 198.208 914.317 198.712 912.731 199.722C911.145 200.731 910.352 202.137 910.352 203.939C910.352 205.237 910.929 206.282 912.082 207.075C913.308 207.796 914.966 208.156 917.057 208.156C919.147 208.156 920.986 207.724 922.571 206.859C924.157 205.921 925.383 204.696 926.248 203.182C927.185 201.668 927.654 200.01 927.654 198.208H931.871C931.871 205.417 930.357 211.004 927.329 214.969C924.302 218.934 919.652 220.916 913.38 220.916Z" fill="white"/>
<path d="M868.092 219.618V143.924H884.961V219.618H868.092Z" fill="white"/>
<path d="M825.534 220.916C818.037 220.916 811.405 219.258 805.638 215.942C799.943 212.554 795.437 207.94 792.121 202.101C788.877 196.189 787.255 189.413 787.255 181.771C787.255 174.13 788.877 167.39 792.121 161.55C795.437 155.639 799.943 151.025 805.638 147.709C811.405 144.321 818.037 142.627 825.534 142.627C831.013 142.627 836.023 143.6 840.565 145.546C845.179 147.421 849.144 150.088 852.46 153.548C855.848 157.009 858.443 161.01 860.246 165.551L843.917 171.066C842.836 168.543 841.358 166.344 839.484 164.47C837.682 162.596 835.591 161.154 833.212 160.145C830.905 159.135 828.346 158.631 825.534 158.631C821.57 158.631 818.037 159.604 814.937 161.55C811.837 163.497 809.422 166.236 807.692 169.768C805.962 173.229 805.097 177.23 805.097 181.771C805.097 186.313 805.962 190.35 807.692 193.882C809.495 197.343 811.946 200.082 815.045 202.101C818.217 204.047 821.822 205.02 825.859 205.02C828.815 205.02 831.446 204.48 833.753 203.398C836.06 202.317 838.042 200.803 839.7 198.857C841.43 196.91 842.908 194.675 844.134 192.152L860.462 197.667C858.732 202.281 856.173 206.354 852.784 209.886C849.396 213.347 845.395 216.05 840.781 217.996C836.168 219.943 831.085 220.916 825.534 220.916Z" fill="white"/>
<path d="M742.656 220.916C736.24 220.916 731.446 219.402 728.274 216.374C725.175 213.275 723.625 208.877 723.625 203.182V148.682H740.494V198.965C740.494 201.127 740.89 202.713 741.683 203.723C742.476 204.732 743.702 205.237 745.36 205.237C746.008 205.237 746.765 205.092 747.63 204.804C748.496 204.444 749.289 204.011 750.009 203.506L755.849 215.834C754.119 217.275 752.028 218.501 749.577 219.51C747.198 220.447 744.891 220.916 742.656 220.916ZM715.19 179.717V165.551H752.821V179.717H715.19Z" fill="white"/>
<path d="M697.882 220.916C691.466 220.916 686.672 219.402 683.5 216.374C680.4 213.275 678.85 208.877 678.85 203.182V148.682H695.719V198.965C695.719 201.127 696.116 202.713 696.909 203.723C697.702 204.732 698.927 205.237 700.585 205.237C701.234 205.237 701.991 205.092 702.856 204.804C703.721 204.444 704.514 204.011 705.235 203.506L711.074 215.834C709.344 217.275 707.254 218.501 704.802 219.51C702.424 220.447 700.117 220.916 697.882 220.916ZM670.416 179.717V165.551H708.047V179.717H670.416Z" fill="white"/>
<path d="M640.076 220.916C634.453 220.916 629.479 219.727 625.154 217.348C620.829 214.897 617.44 211.544 614.989 207.291C612.538 203.038 611.313 198.136 611.313 192.585C611.313 186.962 612.538 182.024 614.989 177.77C617.512 173.517 620.937 170.201 625.262 167.822C629.587 165.443 634.598 164.254 640.293 164.254C645.411 164.254 650.025 165.479 654.134 167.93C658.243 170.381 661.487 174.022 663.866 178.852C666.317 183.682 667.543 189.701 667.543 196.91H626.884L628.722 194.856C628.722 197.307 629.227 199.469 630.236 201.344C631.246 203.218 632.651 204.66 634.453 205.669C636.256 206.606 638.274 207.075 640.509 207.075C643.176 207.075 645.411 206.498 647.213 205.345C649.088 204.119 650.385 202.605 651.106 200.803L666.029 205.885C664.587 209.274 662.532 212.085 659.865 214.32C657.27 216.555 654.278 218.213 650.89 219.294C647.502 220.375 643.897 220.916 640.076 220.916ZM629.155 187.827L627.425 185.664H651.647L650.133 187.827C650.133 185.16 649.592 183.033 648.511 181.447C647.43 179.861 646.096 178.744 644.51 178.095C642.924 177.374 641.338 177.013 639.752 177.013C638.166 177.013 636.544 177.374 634.886 178.095C633.3 178.744 631.93 179.861 630.777 181.447C629.696 183.033 629.155 185.16 629.155 187.827Z" fill="white"/>
<path d="M572.999 207.616L563.05 195.937L590.192 165.551H609.981L572.999 207.616ZM556.995 219.618V143.924H573.864V219.618H556.995ZM591.814 219.618L575.053 195.721L586.083 184.15L611.386 219.618H591.814Z" fill="white"/>
<path d="M524.678 220.916C518.911 220.916 513.757 219.727 509.215 217.348C504.746 214.897 501.249 211.544 498.726 207.291C496.203 202.966 494.942 198.064 494.942 192.585C494.942 187.034 496.203 182.132 498.726 177.879C501.249 173.625 504.71 170.309 509.107 167.93C513.577 165.479 518.695 164.254 524.462 164.254C530.013 164.254 535.095 165.659 539.709 168.471C544.323 171.282 547.639 175.355 549.658 180.69L533.654 186.097C532.861 184.367 531.527 182.961 529.653 181.88C527.85 180.726 525.832 180.149 523.597 180.149C521.362 180.149 519.38 180.69 517.65 181.771C515.992 182.781 514.658 184.222 513.649 186.097C512.712 187.971 512.243 190.134 512.243 192.585C512.243 195.036 512.712 197.199 513.649 199.073C514.658 200.875 516.028 202.317 517.758 203.398C519.56 204.48 521.579 205.02 523.813 205.02C526.048 205.02 528.067 204.444 529.869 203.29C531.671 202.137 533.005 200.623 533.87 198.748L549.874 204.155C547.783 209.562 544.431 213.707 539.817 216.591C535.276 219.474 530.229 220.916 524.678 220.916Z" fill="white"/>
<path d="M463.197 220.916C457.574 220.916 452.599 219.727 448.274 217.348C443.949 214.897 440.56 211.544 438.109 207.291C435.658 203.038 434.433 198.136 434.433 192.585C434.433 186.962 435.658 182.024 438.109 177.77C440.633 173.517 444.057 170.201 448.382 167.822C452.708 165.443 457.718 164.254 463.413 164.254C468.531 164.254 473.145 165.479 477.254 167.93C481.363 170.381 484.607 174.022 486.986 178.852C489.437 183.682 490.663 189.701 490.663 196.91H450.004L451.842 194.856C451.842 197.307 452.347 199.469 453.356 201.344C454.366 203.218 455.771 204.66 457.574 205.669C459.376 206.606 461.394 207.075 463.629 207.075C466.296 207.075 468.531 206.498 470.333 205.345C472.208 204.119 473.505 202.605 474.226 200.803L489.149 205.885C487.707 209.274 485.652 212.085 482.985 214.32C480.39 216.555 477.398 218.213 474.01 219.294C470.622 220.375 467.017 220.916 463.197 220.916ZM452.275 187.827L450.545 185.664H474.767L473.253 187.827C473.253 185.16 472.712 183.033 471.631 181.447C470.55 179.861 469.216 178.744 467.63 178.095C466.044 177.374 464.458 177.013 462.872 177.013C461.286 177.013 459.664 177.374 458.006 178.095C456.42 178.744 455.05 179.861 453.897 181.447C452.816 183.033 452.275 185.16 452.275 187.827Z" fill="white"/>
<path d="M372.766 219.618V143.924H399.259C404.449 143.924 409.027 144.717 412.992 146.303C416.957 147.889 420.057 150.304 422.291 153.548C424.526 156.792 425.644 160.901 425.644 165.876C425.644 168.543 424.923 171.066 423.481 173.445C422.111 175.752 420.201 177.843 417.75 179.717C421.21 181.519 423.841 183.898 425.644 186.854C427.518 189.737 428.455 193.306 428.455 197.559C428.455 202.317 427.374 206.354 425.211 209.67C423.048 212.914 420.057 215.401 416.236 217.131C412.415 218.789 407.946 219.618 402.827 219.618H372.766ZM389.743 204.263H400.881C403.836 204.263 406.179 203.506 407.91 201.993C409.64 200.407 410.505 198.388 410.505 195.937C410.505 193.342 409.604 191.323 407.801 189.882C405.999 188.368 403.512 187.611 400.34 187.611H389.743V204.263ZM389.743 173.661H398.718C401.458 173.661 403.656 172.976 405.314 171.607C406.972 170.165 407.801 168.183 407.801 165.659C407.801 163.064 406.9 161.082 405.098 159.712C403.368 158.27 401.025 157.549 398.069 157.549H389.743V173.661Z" fill="white"/>
</g>
<defs>
<clipPath id="clip0_111_33">
<rect width="1107" height="227" fill="white"/>
</clipPath>
</defs>
</svg>
