<svg version="1.1" xmlns="http://www.w3.org/2000/svg" xmlns:xlink="http://www.w3.org/1999/xlink" width="292.23556" height="52.14286" viewBox="0,0,292.23556,52.14286"><g transform="translate(0.11778,0.07143)"><g data-paper-data="{&quot;isPaintingLayer&quot;:true}" stroke="none" stroke-linecap="butt" stroke-linejoin="miter" stroke-miterlimit="10" stroke-dasharray="" stroke-dashoffset="0" style="mix-blend-mode: normal"><path d="M-0.11778,43.93928c0,-6.15155 0,-25.1286 0,-36.05c0,-4.73861 3.07351,-7.96071 7.96786,-7.96071c16.70897,0 54.63972,0 63.95,0c4.03533,0 8.08276,3.17773 8.08366,7.86074c0.0021,10.88493 0.00576,29.90221 0.00694,36.04997c0.00073,3.77477 -3.11663,8.10067 -8.09057,8.11246c-16.15928,0.03831 -51.90537,0.11969 -63.95003,0.11969c-4.90487,0 -7.96786,-4.34055 -7.96786,-8.13214z" fill="#f13939" fill-rule="nonzero" stroke-width="0"/><path d="M27.21416,35.28962c0,-5.80611 0,-15.36312 0,-18.62463c0,-2.15561 1.89873,-4.04823 4.70937,-3.02556c3.58058,1.30282 12.71175,6.3471 18.45337,9.5954c2.91338,1.64824 2.90757,4.00376 -0.00812,5.62797c-5.7628,3.21021 -14.92115,8.19595 -18.38532,9.4352c-2.84354,1.01723 -4.7693,-0.25866 -4.7693,-3.00839z" fill="#ffffff" fill-rule="nonzero" stroke-width="0"/><path d="M231.83578,5.34668c0.1195,-0.1195 2.05913,-0.17844 4.31022,-0.13032l4.0923,0.08706l0.15681,8.12026c0.13627,7.07285 0.21413,8.05159 0.60184,7.58385c4.94721,-5.96758 16.27405,-1.40916 18.95502,7.62765c3.56725,12.02385 -8.96922,23.67458 -18.2445,16.95538l-1.31237,-0.95062v1.09932v1.09878h-4.38863h-4.38863v-20.63672c0,-11.35009 0.09787,-20.73459 0.21792,-20.85464M84.51824,7.52693c0.1022,-0.1022 2.41277,-0.18601 5.13431,-0.18601h4.94829l4.1334,6.89603c2.2738,3.79328 4.22478,6.89657 4.33618,6.89657c0.11139,0 2.07806,-3.10329 4.37024,-6.89657l4.16801,-6.89603h5.14728c2.83076,0 5.14728,0.08652 5.14728,0.1925c0,0.10544 -3.17413,5.23542 -7.05338,11.39875l-7.05284,11.20679v8.34953v8.34953h-4.54544h-4.54544v-8.16514v-8.16514l-6.16225,-9.78087c-3.38934,-5.3798 -6.6235,-10.5087 -7.18695,-11.39713c-0.56399,-0.88897 -0.94088,-1.70008 -0.83868,-1.80282M172.68555,11.72955v-4.38863h14.41932h14.41986v4.38863v4.38863h-5.01534h-5.01588v15.35966v15.3602h-4.54544h-4.5449v-15.3602v-15.35966h-4.85907h-4.85853v-4.38863M127.39984,18.65802c1.02848,-0.15141 2.22243,-0.22927 2.6534,-0.17358c0.43097,0.0557 1.48703,0.19412 2.34626,0.30822c6.58781,0.87329 11.75997,7.15829 11.75997,14.29008c0,12.68517 -15.07523,19.09399 -24.4646,10.40055c-8.77023,-8.11972 -4.12583,-23.08356 7.70497,-24.82527M274.87689,18.68019c1.12095,-0.15952 2.06291,-0.30768 2.0932,-0.32931c0.03082,-0.02109 1.15934,0.11464 2.50794,0.30227c7.46651,1.03714 12.6219,6.8771 12.63596,14.31387l0.00379,1.95909h-10.50113c-11.50312,0 -11.04944,-0.08165 -10.06097,1.81796c1.88339,3.62024 9.45859,4.49191 11.17435,1.28642c0.29038,-0.54236 0.71486,-0.59643 4.69685,-0.59643c4.97479,0 4.87205,-0.07192 3.51534,2.46631c-5.41657,10.13181 -21.99397,9.95552 -26.79032,-0.28551c-4.27778,-9.13198 1.06255,-19.55633 10.72499,-20.93467M147.60775,27.9798v-9.0406h4.19613h4.19667l0.12167,8.69885c0.15141,10.80611 0.57426,11.99032 4.27886,11.99032c4.1042,0 4.88989,-1.95098 5.01913,-12.45968l0.10166,-8.24733l4.13016,0.08706l4.1307,0.0876l0.08165,13.87101l0.08165,13.87101h-4.2356h-4.23506v-1.09716c0,-1.26046 -0.28227,-1.37023 -1.1269,-0.43692c-2.49713,2.76155 -9.40938,2.81562 -12.63758,0.09896c-3.46505,-2.91566 -4.10312,-5.62584 -4.10312,-17.42311M200.07933,19.38693c0.14816,-0.38609 0.89168,-0.45098 4.33888,-0.37852l4.15936,0.0876l0.15681,8.93407c0.11031,6.29257 0.27199,9.13523 0.54669,9.61486c1.70224,2.97298 6.02544,2.59176 7.73309,-0.68133c0.60184,-1.15285 0.66673,-1.92232 0.81111,-9.56079l0.15681,-8.30681l4.15341,-0.0876l4.15341,-0.0876v13.95861v13.95861h-4.23181h-4.23181v-1.11284v-1.11338l-1.01875,0.76298c-5.99949,4.49083 -13.74664,1.87474 -16.08803,-5.43279c-0.5548,-1.73198 -1.10256,-19.3476 -0.63915,-20.55507M278.70748,25.53566c-2.30679,-0.64023 -4.35727,-0.02163 -6.10331,1.84229c-2.03804,2.17539 -1.94936,2.21919 4.46704,2.21919c3.10329,0 5.6426,-0.07733 5.6426,-0.17195c0,-1.19882 -2.27705,-3.40881 -4.00633,-3.88953M249.30919,27.43311c-4.21451,-2.88754 -9.2304,-0.18277 -9.48292,5.11376c-0.22008,4.60601 2.42791,7.36863 6.71975,7.01283c5.50904,-0.45692 7.43785,-8.92326 2.76317,-12.12659M132.10372,27.05189c-4.24047,-1.92665 -8.31222,1.05065 -8.31817,6.08222c-0.00757,6.5651 8.21705,8.76698 11.10459,2.97244c1.7455,-3.5029 0.49586,-7.56384 -2.78642,-9.05466" fill="#000000" fill-rule="evenodd" stroke-width="1"/></g></g></svg>