<svg xmlns="http://www.w3.org/2000/svg" width="1280" height="129" viewBox="0 0 1280 129" version="1.1"><path d="M 251.500 1.023 C 163.212 5.476, 80.373 19.008, 14.750 39.697 L 0 44.348 0 86.675 L 0 129.002 640.250 128.751 L 1280.500 128.500 1280.741 85.500 C 1280.874 61.850, 1280.649 42.995, 1280.241 43.601 C 1278.683 45.914, 1245.657 55.746, 1215.500 62.873 C 1165.402 74.714, 1110.084 82.591, 1044.500 87.223 C 1020.442 88.923, 926.722 88.902, 902 87.192 C 802.959 80.340, 730.298 68.200, 628.500 41.493 C 510.804 10.615, 367.130 -4.808, 251.500 1.023 M 0.458 86.500 C 0.459 110.150, 0.590 119.682, 0.749 107.682 C 0.909 95.683, 0.909 76.333, 0.749 64.682 C 0.589 53.032, 0.458 62.850, 0.458 86.500" stroke="none" fill="#080404" fill-rule="evenodd"/></svg>